<?xml version="1.0" encoding="utf-8"?>
<svg width="200" height="200" fill="#000000" version="1.1" x="0px" y="0px" viewBox="0 0 90 90" enable-background="new 0 0 90 90" xmlns="http://www.w3.org/2000/svg">
  <g>
    <path d="M76,41.4c3.2,3.2,8.3,3.2,11.6,0.1c3.2-3.2,3.2-8.3,0.1-11.6c-3.2-3.2-8.3-3.2-11.5-0.1c-1.6,1.6-2.4,3.6-2.4,5.7   l-13.9,3.5c0.5,1.3,0.8,2.6,1,4l13.9-3.5C75.1,40.3,75.5,40.9,76,41.4z" style="fill: rgb(133, 159, 191);"/>
    <path d="M45.1,73.5L45,63.2c-0.1,0-0.1,0-0.2,0c-1.3,0.1-2.6,0.1-3.9,0L41,73.5c-3.8,1-6.4,4.7-6,8.8c0.5,4.5,4.5,7.7,9,7.2   c4.5-0.5,7.7-4.5,7.2-9C50.9,77,48.4,74.3,45.1,73.5z" style="fill: rgb(133, 159, 191);"/>
    <path d="M24.5,48.9l-9.6,3.4c-1.6-2.4-4.5-3.9-7.7-3.6c-4.5,0.5-7.7,4.5-7.2,9c0.5,4.5,4.5,7.7,9,7.2c4.4-0.5,7.6-4.4,7.2-8.8   l9.6-3.4C25.3,51.6,24.8,50.3,24.5,48.9z" style="fill: rgb(133, 159, 191);"/>
    <path d="M36.8,27l-5.6-12.1c2.1-1.7,3.2-4.4,2.9-7.2c-0.5-4.5-4.5-7.7-9-7.2c-4.5,0.5-7.7,4.5-7.2,9c0.5,4.5,4.5,7.7,9,7.2   c0.2,0,0.4-0.1,0.5-0.1l5.6,12.1C34.2,28.1,35.5,27.5,36.8,27z" style="fill: rgb(133, 159, 191);"/>
    <circle cx="42.7" cy="44.7" r="14" style="fill: rgb(236, 146, 146);"/>
  </g>
</svg>